<svg width="596.342" height="212.765" xmlns="http://www.w3.org/2000/svg">

 <g>
  <title>background</title>
  <rect fill="none" id="canvas_background" height="602" width="802" y="-1" x="-1"/>
 </g>
 <g>
  <title>Layer 1</title>
  <path fill="#ffffff" id="svg_1" d="m0,4.387l73.841,0l0,208.378l-73.841,0l0,-208.378zm209.004,0l73.215,0l0,208.378l-73.215,0l0,-208.378zm165.205,0l73.21,0l0,208.378l-73.21,0l0,-208.378z"/>
  <path fill="#ffffff" id="svg_2" d="m327.898,0c-12.589,1.284 -19.301,3.698 -28.788,12.518c-6.691,5.904 -13.067,20.548 -11.886,29.414c-0.753,21.907 18.394,41.922 40.674,41.301c55.375,-1.722 55.203,-80.518 0,-83.233m210.879,118.267c-4.624,-7.414 -4.064,-15.847 1.874,-21.895c5.234,-9.697 11.711,-19.14 17.529,-28.785c7.16,-12.685 15.734,-26.639 23.779,-38.8c2.771,-4.877 6.337,-10.042 8.76,-15.017l1.874,-2.506l0.632,-1.874l1.242,-1.877l1.264,-1.253l0.61,-1.25l0,-0.623l-80.095,0l-0.621,0.625l-1.253,2.502l-1.253,1.252l-1.251,2.499l-1.244,1.879l-1.262,2.5l-1.874,2.505c-6.844,11.861 -14.198,22.798 -21.267,34.416c-7.293,15.592 -26.337,38.362 -30.046,54.438c-1.588,11.092 23.976,45.22 29.414,55.69c6.376,10.228 13.444,23.039 20.024,32.552c1.223,4.4 4.808,6.986 7.505,12.508l1.253,1.874l1.253,2.506l0.621,0.631l80.095,0l-57.563,-94.497m-373.577,-80.092c-8.24,-42.395 -54.867,-35.031 -87.606,-33.788l47.558,208.378l79.472,0l-39.424,-174.59" clip-rule="evenodd" fill-rule="evenodd"/>
 </g>
</svg>